<mxfile host="app.diagrams.net" agent="Mozilla/5.0 (Windows NT 10.0; Win64; x64) AppleWebKit/537.36 (KHTML, like Gecko) Chrome/135.0.0.0 Safari/537.36" version="26.2.13">
  <diagram name="第 1 页" id="2BHJ6eeiq_Yv8pMzbxQ_">
    <mxGraphModel dx="985" dy="587" grid="1" gridSize="10" guides="1" tooltips="1" connect="1" arrows="1" fold="1" page="1" pageScale="1" pageWidth="827" pageHeight="1169" math="0" shadow="0">
      <root>
        <mxCell id="0" />
        <mxCell id="1" parent="0" />
        <mxCell id="VgWMmSqCkl9dI5_7_QPs-1" value="Administrator" style="shape=umlLifeline;perimeter=lifelinePerimeter;whiteSpace=wrap;container=1;dropTarget=0;collapsible=0;recursiveResize=0;outlineConnect=0;portConstraint=eastwest;newEdgeStyle={&quot;edgeStyle&quot;:&quot;elbowEdgeStyle&quot;,&quot;elbow&quot;:&quot;vertical&quot;,&quot;curved&quot;:0,&quot;rounded&quot;:0};size=65;" vertex="1" parent="1">
          <mxGeometry x="229" y="20" width="150" height="850" as="geometry" />
        </mxCell>
        <mxCell id="VgWMmSqCkl9dI5_7_QPs-2" value="System" style="shape=umlLifeline;perimeter=lifelinePerimeter;whiteSpace=wrap;container=1;dropTarget=0;collapsible=0;recursiveResize=0;outlineConnect=0;portConstraint=eastwest;newEdgeStyle={&quot;edgeStyle&quot;:&quot;elbowEdgeStyle&quot;,&quot;elbow&quot;:&quot;vertical&quot;,&quot;curved&quot;:0,&quot;rounded&quot;:0};size=65;" vertex="1" parent="1">
          <mxGeometry x="429" y="20" width="150" height="850" as="geometry" />
        </mxCell>
        <mxCell id="VgWMmSqCkl9dI5_7_QPs-3" value="" style="points=[];perimeter=orthogonalPerimeter;outlineConnect=0;targetShapes=umlLifeline;portConstraint=eastwest;newEdgeStyle={&quot;edgeStyle&quot;:&quot;elbowEdgeStyle&quot;,&quot;elbow&quot;:&quot;vertical&quot;,&quot;curved&quot;:0,&quot;rounded&quot;:0}" vertex="1" parent="VgWMmSqCkl9dI5_7_QPs-2">
          <mxGeometry x="70" y="106" width="10" height="684" as="geometry" />
        </mxCell>
        <mxCell id="VgWMmSqCkl9dI5_7_QPs-4" value="alt" style="shape=umlFrame;pointerEvents=0;dropTarget=0;strokeColor=#B3B3B3;height=20;width=30" vertex="1" parent="1">
          <mxGeometry x="293" y="147" width="306" height="622" as="geometry" />
        </mxCell>
        <mxCell id="VgWMmSqCkl9dI5_7_QPs-5" value="[启动操作]" style="text;strokeColor=none;fillColor=none;align=center;verticalAlign=middle;whiteSpace=wrap;" vertex="1" parent="VgWMmSqCkl9dI5_7_QPs-4">
          <mxGeometry x="30" width="276" height="20" as="geometry" />
        </mxCell>
        <mxCell id="VgWMmSqCkl9dI5_7_QPs-6" value="[关闭操作]" style="shape=line;dashed=1;whiteSpace=wrap;verticalAlign=top;labelPosition=center;verticalLabelPosition=middle;align=center;strokeColor=#B3B3B3;" vertex="1" parent="VgWMmSqCkl9dI5_7_QPs-4">
          <mxGeometry y="185" width="306" height="3" as="geometry" />
        </mxCell>
        <mxCell id="VgWMmSqCkl9dI5_7_QPs-7" value="[操作失败]" style="shape=line;dashed=1;whiteSpace=wrap;verticalAlign=top;labelPosition=center;verticalLabelPosition=middle;align=center;strokeColor=#B3B3B3;" vertex="1" parent="VgWMmSqCkl9dI5_7_QPs-4">
          <mxGeometry y="529" width="306" height="3" as="geometry" />
        </mxCell>
        <mxCell id="VgWMmSqCkl9dI5_7_QPs-8" value="选择目标充电桩" style="verticalAlign=bottom;edgeStyle=elbowEdgeStyle;elbow=vertical;curved=0;rounded=0;endArrow=block;" edge="1" parent="1" source="VgWMmSqCkl9dI5_7_QPs-1" target="VgWMmSqCkl9dI5_7_QPs-3">
          <mxGeometry relative="1" as="geometry">
            <Array as="points">
              <mxPoint x="411" y="127" />
            </Array>
          </mxGeometry>
        </mxCell>
        <mxCell id="VgWMmSqCkl9dI5_7_QPs-9" value="验证桩状态" style="curved=1;endArrow=block;rounded=0;" edge="1" parent="1" source="VgWMmSqCkl9dI5_7_QPs-3" target="VgWMmSqCkl9dI5_7_QPs-3">
          <mxGeometry relative="1" as="geometry">
            <Array as="points">
              <mxPoint x="564" y="225" />
              <mxPoint x="564" y="255" />
            </Array>
          </mxGeometry>
        </mxCell>
        <mxCell id="VgWMmSqCkl9dI5_7_QPs-10" value="启动成功确认" style="verticalAlign=bottom;edgeStyle=elbowEdgeStyle;elbow=vertical;curved=0;rounded=0;dashed=1;dashPattern=2 3;endArrow=block;" edge="1" parent="1" source="VgWMmSqCkl9dI5_7_QPs-3" target="VgWMmSqCkl9dI5_7_QPs-1">
          <mxGeometry relative="1" as="geometry">
            <Array as="points">
              <mxPoint x="414" y="307" />
            </Array>
          </mxGeometry>
        </mxCell>
        <mxCell id="VgWMmSqCkl9dI5_7_QPs-11" value="停止当前充电" style="curved=1;endArrow=block;rounded=0;" edge="1" parent="1" source="VgWMmSqCkl9dI5_7_QPs-3" target="VgWMmSqCkl9dI5_7_QPs-3">
          <mxGeometry relative="1" as="geometry">
            <Array as="points">
              <mxPoint x="564" y="405" />
              <mxPoint x="564" y="435" />
            </Array>
          </mxGeometry>
        </mxCell>
        <mxCell id="VgWMmSqCkl9dI5_7_QPs-12" value="生成中断详单" style="curved=1;endArrow=block;rounded=0;" edge="1" parent="1" source="VgWMmSqCkl9dI5_7_QPs-3" target="VgWMmSqCkl9dI5_7_QPs-3">
          <mxGeometry relative="1" as="geometry">
            <Array as="points">
              <mxPoint x="564" y="487" />
              <mxPoint x="564" y="517" />
            </Array>
          </mxGeometry>
        </mxCell>
        <mxCell id="VgWMmSqCkl9dI5_7_QPs-13" value="触发故障处理流程" style="curved=1;endArrow=block;rounded=0;" edge="1" parent="1" source="VgWMmSqCkl9dI5_7_QPs-3" target="VgWMmSqCkl9dI5_7_QPs-3">
          <mxGeometry relative="1" as="geometry">
            <Array as="points">
              <mxPoint x="564" y="569" />
              <mxPoint x="564" y="599" />
            </Array>
          </mxGeometry>
        </mxCell>
        <mxCell id="VgWMmSqCkl9dI5_7_QPs-14" value="关闭成功确认" style="verticalAlign=bottom;edgeStyle=elbowEdgeStyle;elbow=vertical;curved=0;rounded=0;dashed=1;dashPattern=2 3;endArrow=block;" edge="1" parent="1" source="VgWMmSqCkl9dI5_7_QPs-3" target="VgWMmSqCkl9dI5_7_QPs-1">
          <mxGeometry relative="1" as="geometry">
            <Array as="points">
              <mxPoint x="414" y="651" />
            </Array>
          </mxGeometry>
        </mxCell>
        <mxCell id="VgWMmSqCkl9dI5_7_QPs-15" value="错误提示(红色)" style="verticalAlign=bottom;edgeStyle=elbowEdgeStyle;elbow=vertical;curved=0;rounded=0;dashed=1;dashPattern=2 3;endArrow=block;" edge="1" parent="1" source="VgWMmSqCkl9dI5_7_QPs-3" target="VgWMmSqCkl9dI5_7_QPs-1">
          <mxGeometry relative="1" as="geometry">
            <Array as="points">
              <mxPoint x="414" y="749" />
            </Array>
          </mxGeometry>
        </mxCell>
        <mxCell id="VgWMmSqCkl9dI5_7_QPs-16" value="状态更新通知" style="verticalAlign=bottom;edgeStyle=elbowEdgeStyle;elbow=vertical;curved=0;rounded=0;dashed=1;dashPattern=2 3;endArrow=block;" edge="1" parent="1" source="VgWMmSqCkl9dI5_7_QPs-3" target="VgWMmSqCkl9dI5_7_QPs-1">
          <mxGeometry relative="1" as="geometry">
            <Array as="points">
              <mxPoint x="414" y="811" />
            </Array>
          </mxGeometry>
        </mxCell>
      </root>
    </mxGraphModel>
  </diagram>
</mxfile>
